<svg xmlns="http://www.w3.org/2000/svg" xmlns:xlink="http://www.w3.org/1999/xlink" contentStyleType="text/css" height="1255px" preserveAspectRatio="none" style="width:1027px;height:1255px;background:#FFFFFF;" version="1.1" viewBox="0 0 1027 1255" width="1027px" zoomAndPan="magnify"><defs/><g><!--cluster Enregistrer une vente--><g id="cluster_Enregistrer une vente"><rect fill="none" height="948" rx="2.5" ry="2.5" style="stroke:#181818;stroke-width:1;" width="864" x="149" y="97.5"/><text fill="#000000" font-family="sans-serif" font-size="14" font-weight="bold" lengthAdjust="spacing" textLength="143.9375" x="509.0313" y="114.0332">Enregistrer une vente</text></g><g id="elem_UC"><ellipse cx="253.1848" cy="602.537" fill="#FDF7EE" rx="88.1848" ry="20.037" style="stroke:#C17A2B;stroke-width:0.5;"/><text fill="#000000" font-family="sans-serif" font-size="14" lengthAdjust="spacing" textLength="133.8545" x="186.2575" y="606.2655">Enregistrer une vente</text></g><g id="elem_UC_AUTH"><ellipse cx="569.7566" cy="847.5513" fill="#FDF7EE" rx="68.2566" ry="16.0513" style="stroke:#C17A2B;stroke-width:0.5;"/><text fill="#000000" font-family="sans-serif" font-size="14" lengthAdjust="spacing" textLength="82.4961" x="525.5085" y="852.0679">S authentifier</text></g><g id="elem_UC_PERM"><ellipse cx="570.1428" cy="768.4606" fill="#FDF7EE" rx="104.1428" ry="27.9606" style="stroke:#C17A2B;stroke-width:0.5;"/><text fill="#000000" font-family="sans-serif" font-size="14" lengthAdjust="spacing" textLength="130.71" x="501.7878" y="764.1725">Verifier la permission</text><text fill="#000000" font-family="sans-serif" font-size="14" lengthAdjust="spacing" textLength="77.0479" x="528.6189" y="781.7819">vente:create</text></g><g id="elem_UC_CLI"><ellipse cx="570.195" cy="685.639" fill="#FDF7EE" rx="86.195" ry="19.639" style="stroke:#C17A2B;stroke-width:0.5;"/><text fill="#000000" font-family="sans-serif" font-size="14" lengthAdjust="spacing" textLength="129.1855" x="505.6022" y="689.3675">Selectionner le client</text></g><g id="elem_UC_LOT"><ellipse cx="570.1796" cy="511.4037" fill="#FDF7EE" rx="90.1796" ry="27.9037" style="stroke:#C17A2B;stroke-width:0.5;"/><text fill="#000000" font-family="sans-serif" font-size="14" lengthAdjust="spacing" textLength="111.2891" x="514.2322" y="506.4141">Selectionner le lot</text><text fill="#000000" font-family="sans-serif" font-size="14" lengthAdjust="spacing" textLength="52.1377" x="543.8079" y="524.0234">de stock</text></g><g id="elem_UC_ORIG"><ellipse cx="909.8674" cy="511.4034" fill="#FDF7EE" rx="86.8674" ry="27.9034" style="stroke:#C17A2B;stroke-width:0.5;"/><text fill="#000000" font-family="sans-serif" font-size="14" lengthAdjust="spacing" textLength="106.6064" x="856.5642" y="506.3272">Afficher la saison</text><text fill="#000000" font-family="sans-serif" font-size="14" lengthAdjust="spacing" textLength="91.8408" x="863.947" y="523.9366">d origine du lot</text></g><g id="elem_UC_QTE"><ellipse cx="569.7922" cy="602.4438" fill="#FDF7EE" rx="100.7922" ry="27.9438" style="stroke:#C17A2B;stroke-width:0.5;"/><text fill="#000000" font-family="sans-serif" font-size="14" lengthAdjust="spacing" textLength="126.0752" x="503.7546" y="598.1557">Controler la quantite</text><text fill="#000000" font-family="sans-serif" font-size="14" lengthAdjust="spacing" textLength="63.0479" x="535.2683" y="615.7651">disponible</text></g><g id="elem_UC_SAISON"><ellipse cx="569.9625" cy="420.4523" fill="#FDF7EE" rx="102.4625" ry="27.9523" style="stroke:#C17A2B;stroke-width:0.5;"/><text fill="#000000" font-family="sans-serif" font-size="14" lengthAdjust="spacing" textLength="128.3857" x="502.7697" y="416.1642">Determiner la saison</text><text fill="#000000" font-family="sans-serif" font-size="14" lengthAdjust="spacing" textLength="46.6963" x="543.6144" y="433.7736">ouverte</text></g><g id="elem_UC_DEC"><ellipse cx="569.7696" cy="329.466" fill="#FDF7EE" rx="105.2696" ry="27.966" style="stroke:#C17A2B;stroke-width:0.5;"/><text fill="#000000" font-family="sans-serif" font-size="14" lengthAdjust="spacing" textLength="132.2686" x="500.6353" y="325.1779">Decrementer le stock</text><text fill="#000000" font-family="sans-serif" font-size="14" lengthAdjust="spacing" textLength="34.248" x="549.6455" y="342.7873">du lot</text></g><g id="elem_UC_AUDIT"><ellipse cx="570.2281" cy="238.4841" fill="#FDF7EE" rx="109.2281" ry="27.9841" style="stroke:#C17A2B;stroke-width:0.5;"/><text fill="#000000" font-family="sans-serif" font-size="14" lengthAdjust="spacing" textLength="137.7441" x="498.356" y="234.196">Journaliser l operation</text><text fill="#000000" font-family="sans-serif" font-size="14" lengthAdjust="spacing" textLength="39.6826" x="547.3868" y="251.8054">(audit)</text></g><g id="elem_UC_FACT"><ellipse cx="570.0142" cy="1009.7028" fill="#FDF7EE" rx="86.5142" ry="19.7028" style="stroke:#C17A2B;stroke-width:0.5;"/><text fill="#000000" font-family="sans-serif" font-size="14" lengthAdjust="spacing" textLength="129.9375" x="505.0455" y="1013.4314">Editer la facture PDF</text></g><g id="elem_UC_ENC"><ellipse cx="569.9082" cy="154.6816" fill="#FDF7EE" rx="93.9082" ry="21.1816" style="stroke:#C17A2B;stroke-width:0.5;"/><text fill="#000000" font-family="sans-serif" font-size="14" lengthAdjust="spacing" textLength="147.0752" x="496.3706" y="158.4101">Encaisser un reglement</text></g><g id="elem_UC_UPD"><ellipse cx="569.9981" cy="926.4097" fill="#FDF7EE" rx="93.4981" ry="27.9097" style="stroke:#C17A2B;stroke-width:0.5;"/><text fill="#000000" font-family="sans-serif" font-size="14" lengthAdjust="spacing" textLength="115.9512" x="510.5825" y="921.7299">Corriger une vente</text><text fill="#000000" font-family="sans-serif" font-size="14" lengthAdjust="spacing" textLength="90.2891" x="523.4136" y="939.3393">non encaissee</text></g><!--entity AGENT--><g id="elem_AGENT"><ellipse cx="53.8652" cy="522.5" fill="#F1F1F1" rx="16" ry="16" style="stroke:#181818;stroke-width:0.5;"/><path d="M53.8652,542.5 C57.8652,542.5 60.8652,542.5 64.8652,538.5 C72.8652,538.5 80.8652,546.5 80.8652,554.5 L80.8652,558.5 C80.8652,562.5 76.8652,566.5 72.8652,566.5 L34.8652,566.5 C30.8652,566.5 26.8652,562.5 26.8652,558.5 L26.8652,554.5 C26.8652,546.5 34.8652,538.5 42.8652,538.5 C46.8652,542.5 49.8652,542.5 53.8652,542.5 " fill="#F1F1F1" style="stroke:#181818;stroke-width:0.5;"/><text fill="#000000" font-family="sans-serif" font-size="14" lengthAdjust="spacing" textLength="95.7305" x="6" y="581.5332">Agent de saisie</text></g><!--entity ADMIN--><g id="elem_ADMIN"><ellipse cx="54.1274" cy="636.5" fill="#F1F1F1" rx="16" ry="16" style="stroke:#181818;stroke-width:0.5;"/><path d="M54.1274,656.5 C58.1274,656.5 61.1274,656.5 65.1274,652.5 C73.1274,652.5 81.1274,660.5 81.1274,668.5 L81.1274,672.5 C81.1274,676.5 77.1274,680.5 73.1274,680.5 L35.1274,680.5 C31.1274,680.5 27.1274,676.5 27.1274,672.5 L27.1274,668.5 C27.1274,660.5 35.1274,652.5 43.1274,652.5 C47.1274,656.5 50.1274,656.5 54.1274,656.5 " fill="#F1F1F1" style="stroke:#181818;stroke-width:0.5;"/><text fill="#000000" font-family="sans-serif" font-size="14" lengthAdjust="spacing" textLength="90.2549" x="9" y="695.5332">Administrateur</text></g><!--entity CLIENT--><g id="elem_CLIENT"><ellipse cx="253.1343" cy="1095.6094" fill="#F1F1F1" rx="16" ry="16" style="stroke:#181818;stroke-width:0.5;"/><path d="M253.1343,1115.6094 C257.1343,1115.6094 260.1343,1115.6094 264.1343,1111.6094 C272.1343,1111.6094 280.1343,1119.6094 280.1343,1127.6094 L280.1343,1131.6094 C280.1343,1135.6094 276.1343,1139.6094 272.1343,1139.6094 L234.1343,1139.6094 C230.1343,1139.6094 226.1343,1135.6094 226.1343,1131.6094 L226.1343,1127.6094 C226.1343,1119.6094 234.1343,1111.6094 242.1343,1111.6094 C246.1343,1115.6094 249.1343,1115.6094 253.1343,1115.6094 " fill="#F1F1F1" style="stroke:#181818;stroke-width:0.5;"/><text fill="#000000" font-family="sans-serif" font-size="14" lengthAdjust="spacing" textLength="35.793" x="235.2378" y="1154.6426">Client</text><text fill="#000000" font-family="sans-serif" font-size="14" font-style="italic" lengthAdjust="spacing" textLength="62.2686" x="222" y="1076.0332">&#171;externe&#187;</text></g><g id="elem_GMN34"><path d="M799,1061.5 L799,1153.2578 L1020.5605,1153.2578 L1020.5605,1071.5 L1010.5605,1061.5 L799,1061.5 " fill="#FEFFDD" style="stroke:#181818;stroke-width:0.5;"/><path d="M1010.5605,1061.5 L1010.5605,1071.5 L1020.5605,1071.5 L1010.5605,1061.5 " fill="#FEFFDD" style="stroke:#181818;stroke-width:1;"/><text fill="#000000" font-family="sans-serif" font-size="13" lengthAdjust="spacing" textLength="181.3462" x="805" y="1079.9951">Le selecteur liste TOUS les lots</text><text fill="#000000" font-family="sans-serif" font-size="13" lengthAdjust="spacing" textLength="200.5605" x="805" y="1096.3467">dont quantiteDisponible &gt; 0, toutes</text><text fill="#000000" font-family="sans-serif" font-size="13" lengthAdjust="spacing" textLength="177.0361" x="805" y="1112.6982">saisons confondues : filtrer par</text><text fill="#000000" font-family="sans-serif" font-size="13" lengthAdjust="spacing" textLength="197.9834" x="805" y="1129.0498">saison masquerait le stock reporte</text><text fill="#000000" font-family="sans-serif" font-size="13" lengthAdjust="spacing" textLength="160.4243" x="805" y="1145.4014">et empecherait de l ecouler.</text></g><g id="elem_GMN37"><path d="M803,1189 L803,1248.0547 L1016.9561,1248.0547 L1016.9561,1199 L1006.9561,1189 L803,1189 " fill="#FEFFDD" style="stroke:#181818;stroke-width:0.5;"/><path d="M1006.9561,1189 L1006.9561,1199 L1016.9561,1199 L1006.9561,1189 " fill="#FEFFDD" style="stroke:#181818;stroke-width:1;"/><text fill="#000000" font-family="sans-serif" font-size="13" lengthAdjust="spacing" textLength="156.1143" x="809" y="1207.4951">Regle : quantite demandee</text><text fill="#000000" font-family="sans-serif" font-size="13" lengthAdjust="spacing" textLength="192.9561" x="809" y="1223.8467">&lt;= StockDate.quantiteDisponible,</text><text fill="#000000" font-family="sans-serif" font-size="13" lengthAdjust="spacing" textLength="151.7598" x="809" y="1240.1982">sinon la vente est refusee.</text></g><g id="elem_GMN40"><path d="M458,6 L458,81.4063 L682.0869,81.4063 L682.0869,16 L672.0869,6 L458,6 " fill="#FEFFDD" style="stroke:#181818;stroke-width:0.5;"/><path d="M672.0869,6 L672.0869,16 L682.0869,16 L672.0869,6 " fill="#FEFFDD" style="stroke:#181818;stroke-width:1;"/><text fill="#000000" font-family="sans-serif" font-size="13" lengthAdjust="spacing" textLength="203.0869" x="464" y="24.4951">Possible uniquement tant qu aucun</text><text fill="#000000" font-family="sans-serif" font-size="13" lengthAdjust="spacing" textLength="202.3252" x="464" y="40.8467">EncaissementClient n existe. Le lot</text><text fill="#000000" font-family="sans-serif" font-size="13" lengthAdjust="spacing" textLength="194.3716" x="464" y="57.1982">n est jamais modifiable ; la saison</text><text fill="#000000" font-family="sans-serif" font-size="13" lengthAdjust="spacing" textLength="52.7617" x="464" y="73.5498">non plus.</text></g><!--link AGENT to UC--><g id="link_AGENT_UC"><path d="M102.19,559.15 C130.99,567.49 162.1362,576.5031 192.1162,585.1731 " fill="none" id="AGENT-to-UC" style="stroke:#6B4B2A;stroke-width:1;"/><polygon fill="#6B4B2A" points="197.88,586.84,190.3455,580.4972,193.0768,585.451,188.123,588.1823,197.88,586.84" style="stroke:#6B4B2A;stroke-width:1;"/></g><!--link ADMIN to UC--><g id="link_ADMIN_UC"><path d="M99.21,646.71 C128.37,638.27 160.9864,628.8377 191.9864,619.8677 " fill="none" id="ADMIN-to-UC" style="stroke:#6B4B2A;stroke-width:1;"/><polygon fill="#6B4B2A" points="197.75,618.2,187.9928,616.8592,192.947,619.5898,190.2165,624.544,197.75,618.2" style="stroke:#6B4B2A;stroke-width:1;"/></g><!--reverse link CLIENT to UC_FACT--><g id="link_CLIENT_UC_FACT"><path d="M289.9188,1098.0947 C344.1988,1080.8647 453.02,1046.32 519.11,1025.34 " fill="none" id="CLIENT-backto-UC_FACT" style="stroke:#6B4B2A;stroke-width:1;"/><polygon fill="#6B4B2A" points="284.2,1099.91,293.9884,1100.9996,288.9657,1098.3972,291.568,1093.3745,284.2,1099.91" style="stroke:#6B4B2A;stroke-width:1;"/></g><!--link UC to UC_AUTH--><g id="link_UC_UC_AUTH"><path d="M267.24,622.28 C296.44,664.31 370.78,762.8 458,813.5 C476.3,824.13 492.4692,830.1993 512.0092,835.4993 " fill="none" id="UC-to-UC_AUTH" style="stroke:#6B4B2A;stroke-width:1;stroke-dasharray:7.0,7.0;"/><polygon fill="#6B4B2A" points="517.8,837.07,510.161,830.8535,512.9744,835.7611,508.0667,838.5745,517.8,837.07" style="stroke:#6B4B2A;stroke-width:1;"/><text fill="#000000" font-family="sans-serif" font-size="13" lengthAdjust="spacing" textLength="55.6563" x="372" y="746.9951">&#171;include&#187;</text></g><!--link UC to UC_PERM--><g id="link_UC_UC_PERM"><path d="M282.97,621.4 C321.84,646.34 393.48,690.75 458,722.5 C474.47,730.6 487.1842,736.28 504.0642,743.25 " fill="none" id="UC-to-UC_PERM" style="stroke:#6B4B2A;stroke-width:1;stroke-dasharray:7.0,7.0;"/><polygon fill="#6B4B2A" points="509.61,745.54,502.8179,738.4079,504.9885,743.6317,499.7646,745.8023,509.61,745.54" style="stroke:#6B4B2A;stroke-width:1;"/><text fill="#000000" font-family="sans-serif" font-size="13" lengthAdjust="spacing" textLength="55.6563" x="372" y="672.9951">&#171;include&#187;</text></g><!--link UC to UC_CLI--><g id="link_UC_UC_CLI"><path d="M311.41,617.63 C368.82,632.75 450.7081,654.3309 507.5081,669.3009 " fill="none" id="UC-to-UC_CLI" style="stroke:#6B4B2A;stroke-width:1;stroke-dasharray:7.0,7.0;"/><polygon fill="#6B4B2A" points="513.31,670.83,505.6266,664.6684,508.4751,669.5557,503.5878,672.4042,513.31,670.83" style="stroke:#6B4B2A;stroke-width:1;"/><text fill="#000000" font-family="sans-serif" font-size="13" lengthAdjust="spacing" textLength="55.6563" x="372" y="630.9951">&#171;include&#187;</text></g><!--link UC to UC_LOT--><g id="link_UC_UC_LOT"><path d="M308.15,586.86 C362.33,571.2 439.9557,548.775 497.8057,532.065 " fill="none" id="UC-to-UC_LOT" style="stroke:#6B4B2A;stroke-width:1;stroke-dasharray:7.0,7.0;"/><polygon fill="#6B4B2A" points="503.57,530.4,493.8135,529.0547,498.7664,531.7875,496.0335,536.7404,503.57,530.4" style="stroke:#6B4B2A;stroke-width:1;"/><text fill="#000000" font-family="sans-serif" font-size="13" lengthAdjust="spacing" textLength="55.6563" x="372" y="550.9951">&#171;include&#187;</text></g><!--link UC to UC_QTE--><g id="link_UC_UC_QTE"><path d="M341.33,602.5 C380.93,602.5 421.97,602.5 462.98,602.5 " fill="none" id="UC-to-UC_QTE" style="stroke:#6B4B2A;stroke-width:1;stroke-dasharray:7.0,7.0;"/><polygon fill="#6B4B2A" points="468.98,602.5,459.98,598.5,463.98,602.5,459.98,606.5,468.98,602.5" style="stroke:#6B4B2A;stroke-width:1;"/><text fill="#000000" font-family="sans-serif" font-size="13" lengthAdjust="spacing" textLength="55.6563" x="372" y="598.9951">&#171;include&#187;</text></g><!--link UC to UC_SAISON--><g id="link_UC_UC_SAISON"><path d="M279.02,583.21 C316.47,554.91 389.99,501.62 458,465.5 C473.61,457.21 485.5302,451.7158 501.9202,445.0658 " fill="none" id="UC-to-UC_SAISON" style="stroke:#6B4B2A;stroke-width:1;stroke-dasharray:7.0,7.0;"/><polygon fill="#6B4B2A" points="507.48,442.81,497.6364,442.4872,502.8468,444.6898,500.6442,449.9002,507.48,442.81" style="stroke:#6B4B2A;stroke-width:1;"/><text fill="#000000" font-family="sans-serif" font-size="13" lengthAdjust="spacing" textLength="55.6563" x="372" y="481.9951">&#171;include&#187;</text></g><!--link UC to UC_DEC--><g id="link_UC_UC_DEC"><path d="M266.47,582.56 C294.97,538.58 369.33,432.52 458,374.5 C471.83,365.45 482.2402,359.9844 497.6502,353.5744 " fill="none" id="UC-to-UC_DEC" style="stroke:#6B4B2A;stroke-width:1;stroke-dasharray:7.0,7.0;"/><polygon fill="#6B4B2A" points="503.19,351.27,493.344,351.0333,498.5735,353.1903,496.4165,358.4198,503.19,351.27" style="stroke:#6B4B2A;stroke-width:1;"/><text fill="#000000" font-family="sans-serif" font-size="13" lengthAdjust="spacing" textLength="55.6563" x="372" y="395.9951">&#171;include&#187;</text></g><!--link UC to UC_AUDIT--><g id="link_UC_UC_AUDIT"><path d="M260.45,582.38 C279.91,525.13 343.85,360.55 458,283.5 C471.36,274.48 481.2698,269.1275 496.3098,262.7975 " fill="none" id="UC-to-UC_AUDIT" style="stroke:#6B4B2A;stroke-width:1;stroke-dasharray:7.0,7.0;"/><polygon fill="#6B4B2A" points="501.84,260.47,491.9931,260.2745,497.2315,262.4096,495.0964,267.6481,501.84,260.47" style="stroke:#6B4B2A;stroke-width:1;"/><text fill="#000000" font-family="sans-serif" font-size="13" lengthAdjust="spacing" textLength="55.6563" x="372" y="304.9951">&#171;include&#187;</text></g><!--link UC_LOT to UC_ORIG--><g id="link_UC_LOT_UC_ORIG"><path d="M660.25,511.5 C710.51,511.5 766.99,511.5 816.76,511.5 " fill="none" id="UC_LOT-to-UC_ORIG" style="stroke:#6B4B2A;stroke-width:1;stroke-dasharray:7.0,7.0;"/><polygon fill="#6B4B2A" points="822.76,511.5,813.76,507.5,817.76,511.5,813.76,515.5,822.76,511.5" style="stroke:#6B4B2A;stroke-width:1;"/><text fill="#000000" font-family="sans-serif" font-size="13" lengthAdjust="spacing" textLength="55.6563" x="713" y="507.9951">&#171;include&#187;</text></g><!--reverse link UC to UC_FACT--><g id="link_UC_UC_FACT"><path d="M260.3075,628.3653 C272.8075,677.5653 308.26,800.96 371,891.5 C400.92,934.68 412.86,944.64 458,971.5 C474.54,981.34 494,989.1 511.96,994.96 " fill="none" id="UC-backto-UC_FACT" style="stroke:#6B4B2A;stroke-width:1;stroke-dasharray:7.0,7.0;"/><polygon fill="#6B4B2A" points="258.83,622.55,257.1693,632.2578,260.0612,627.396,264.923,630.2879,258.83,622.55" style="stroke:#6B4B2A;stroke-width:1;"/><text fill="#000000" font-family="sans-serif" font-size="13" lengthAdjust="spacing" textLength="53.4917" x="373" y="887.9951">&#171;extend&#187;</text></g><!--reverse link UC to UC_ENC--><g id="link_UC_UC_ENC"><path d="M259.5513,576.615 C271.2913,524.195 306.33,385.77 371,282.5 C400.53,235.35 411.04,222.34 458,192.5 C472.78,183.1 490.16,175.73 506.72,170.09 " fill="none" id="UC-backto-UC_ENC" style="stroke:#6B4B2A;stroke-width:1;stroke-dasharray:7.0,7.0;"/><polygon fill="#6B4B2A" points="258.24,582.47,264.1102,574.5617,259.3327,577.5909,256.3036,572.8134,258.24,582.47" style="stroke:#6B4B2A;stroke-width:1;"/><text fill="#000000" font-family="sans-serif" font-size="13" lengthAdjust="spacing" textLength="53.4917" x="373" y="209.9951">&#171;extend&#187;</text></g><!--reverse link UC to UC_UPD--><g id="link_UC_UC_UPD"><path d="M263.393,628.1281 C278.793,668.6181 315.77,756.04 371,818.5 C407.57,859.86 463.92,888.42 507.17,905.74 " fill="none" id="UC-backto-UC_UPD" style="stroke:#6B4B2A;stroke-width:1;stroke-dasharray:7.0,7.0;"/><polygon fill="#6B4B2A" points="261.26,622.52,260.7208,632.3541,263.0375,627.1934,268.1982,629.5101,261.26,622.52" style="stroke:#6B4B2A;stroke-width:1;"/><text fill="#000000" font-family="sans-serif" font-size="13" lengthAdjust="spacing" textLength="53.4917" x="373" y="814.9951">&#171;extend&#187;</text></g><!--link UC_LOT to GMN34--><g id="link_UC_LOT_GMN34"><path d="M641.74,528.55 C656.8,535.11 671.36,544.12 682,556.5 C827.71,725.93 664.44,867.09 799,1045.5 C803.36,1051.28 808.42,1056.59 813.93,1061.47 " fill="none" id="UC_LOT-GMN34" style="stroke:#6B4B2A;stroke-width:1;stroke-dasharray:7.0,7.0;"/></g><!--link UC_QTE to GMN37--><g id="link_UC_QTE_GMN37"><path d="M646.86,620.84 C660.48,627.43 673.14,636.38 682,648.5 C728.47,712.05 690.33,925.81 712,1001.5 C735.37,1083.1 736.94,1113.6 799,1171.5 C806.14,1178.16 814.36,1183.96 823.03,1188.99 " fill="none" id="UC_QTE-GMN37" style="stroke:#6B4B2A;stroke-width:1;stroke-dasharray:7.0,7.0;"/></g><!--link UC_UPD to GMN40--><g id="link_UC_UPD_GMN40"><path d="M484,915.34 C452.04,906.55 418.87,890.89 399.5,863 C353.35,796.57 357.97,204.42 399.5,135 C413.3,111.94 435.12,94.35 458.61,81.08 " fill="none" id="UC_UPD-GMN40" style="stroke:#6B4B2A;stroke-width:1;stroke-dasharray:7.0,7.0;"/></g><!--SRC=[hLLDRzj64BtpLmpSGn8WLfgWQ01NCK2JTAf2iLrBQYy6YZKvbBOcTvNTfPsYo7_F6txemuvyYcxQzsPtvisRuGlwy2D-qGkYH7agg0cwqbu5RGsbsJoUJASP6NfB9vGPnqljWsD7ZM6wPnDO8g-vPCScPyfjmM1wbx_nxEvrplvDInlrVqV1qylSiGhy2g4_9lceuZ9GiEJqSXMeq8vpAI3oTzgibLCrtQhyRkbiOuh4LjRHtokDtBUuNwd2FcYpf59LVXTHUR1k5lwhcDG3UrllWetdN7cc_oEYiqTF_7IUdh_FCa6iAzZrfydRz_6xCvp6pjc7_l3Nir_EtiNHroXgdwEZU0dL269wfRtc8q9pue_PnNn3A6fjf1bGid4TddwQN0nuKcdSq9udqma2QJpcBu6TuTFJA1A5b5cYgAFljlK89I77eRv39Do-I7PvCr9DM07KfMRN4_w95_FVTrb_iMjngXIjsTNQUxJhnhItddJs66AlikjFUozmrNNNI3mijoqKRDJw7BcouSQ8gi7cTqFCz7A-6nENfSvNNNAYlYHMa8MtD0el6hba2BsyddpSZKsi2SvMNV3dHa67m0ZNVcsDlgqsLVqvptRZKWuYWzb_rJRtxBPApEB9xF9YFmnQrI9QMrrR5LxRIp7DzXhqXssSKHXn2I4BzTjPlp4lLLFey6hRidIo9qi6j4klXCKQntILdW_iypZP9viSDVZMB0JdL6sM0pkxIFP5Sn1trrWtnc3zS7_9He35LIeZqiu17H-VYlTQqmz_1gSV7s-IYXO9ZKQdWmi9ssayrYQlca86OOkApmwZk9aEet3GCoXw_GpQTVKGYkuz4ziswH4QzVdq577eKmQDHwD1eXQLrM2Axl8UGvVe48PEFC8YOmFt2zYMsx6QmfRj469B4Mm7qlnoCODTlRZKWr9WQ3R3acv6XKxfvzVOwarWONL3uV69CQM5nn5_GgMksfM4RRoXKAtyvmQ-rc4p5F3WscAKGE90NAzP9bmOM0OLSMuR3EqeGYqaXNodd6vYhyNBU7X85_6rmaQHcySVQ2QFfTXUewVrl9OCjHWRCzJQdDW7P5PY4lZ9sxSs15ltZulpYQuizgGeqnYD2cMa25jSnCFQpHi3pZ1v0dRV07oz-Oi8Fv9cG7EmJFlqlwe6bsfRO1ihkVYtxVeH5d9TLutVoUqR]--></g></svg>